<svg fill="none" height="48" viewBox="0 0 48 48" width="48" xmlns="http://www.w3.org/2000/svg"><path d="m4 15c0-6.34351 4.53806-10.58 10.8764-10.83551 2.4561-.09901 5.4639-.16449 9.1236-.16449s6.6675.06548 9.1236.16449c6.3383.25551 10.8764 4.492 10.8764 10.83551 0 6.3435-4.5381 10.58-10.8764 10.8355-2.4561.099-5.4639.1645-9.1236.1645s-6.6675-.0655-9.1236-.1645c-6.33833-.2555-10.8764-4.492-10.8764-10.8355z" fill="#1575e5"/><path d="m21.4141 18.3186c.071-1.0591.7114-2.04 1.7671-2.2399.2525-.0479.5138-.0787.7678-.0787.2646 0 .5371.0335.7994.0847 1.0374.2029 1.6743 1.1607 1.7673 2.2009.1786 1.9991.4474 5.2799.4474 6.9189 0 0 3.7073 0 7.3419 1.0262 2.3176.6543 3.7514 2.7954 3.6933 5.1748-.056 2.2937-.4117 5.41-1.6133 8.6816-.5515 1.5014-1.8585 2.561-3.4673 2.7261-1.017.1044-2.3793.1868-4.1462.1868-1.5564 0-2.7988-.0639-3.7679-.1505-1.9034-.17-3.5717-1.1572-4.8362-2.5723-2.5034-2.8016-4.513-5.5212-5.5941-7.0527-.5813-.8235-.808-2.6658-.263-3.5131 1.0854-1.6876 2.8149-.8675 4.4292.3391 1.4056 1.0507 2.1954 1.8164 2.1954 1.8164 0-5.5918.3028-10.9193.4792-13.5483z" fill="#a6cfff"/></svg>