<svg viewBox="0 0 400 300" xmlns="http://www.w3.org/2000/svg"><rect fill="#68e1fd" height="172.71" rx="13.27" width="118.53" x="141.41" y="63.65"/><path d="m246.68 237.35h-92a14.28 14.28 0 0 1 -14.27-14.26v-146.18a14.28 14.28 0 0 1 14.27-14.26h92a14.29 14.29 0 0 1 14.32 14.26v146.18a14.29 14.29 0 0 1 -14.32 14.26zm-92-172.7a12.28 12.28 0 0 0 -12.27 12.26v146.18a12.28 12.28 0 0 0 12.27 12.26h92a12.28 12.28 0 0 0 12.32-12.26v-146.18a12.28 12.28 0 0 0 -12.27-12.26z" fill="#093f68"/><path d="m141.41 78.31h118.53v138.54h-118.53z" fill="#093f68"/><path d="m260 217.86h-118.59a1 1 0 0 1 -1-1v-138.55a1 1 0 0 1 1-1h118.59a1 1 0 0 1 1 1v138.55a1 1 0 0 1 -1 1zm-117.54-2h116.54v-136.55h-116.59z" fill="#093f68"/><rect fill="#fff" height="94.42" rx="4.7" width="124.52" x="120.98" y="96.83"/><path d="m240.81 192.25h-115.13a5.71 5.71 0 0 1 -5.7-5.7v-85a5.71 5.71 0 0 1 5.7-5.7h115.13a5.71 5.71 0 0 1 5.7 5.7v85a5.71 5.71 0 0 1 -5.7 5.7zm-115.13-94.42a3.7 3.7 0 0 0 -3.7 3.7v85a3.7 3.7 0 0 0 3.7 3.7h115.13a3.7 3.7 0 0 0 3.7-3.7v-85a3.7 3.7 0 0 0 -3.7-3.7z" fill="#093f68"/><path d="m174.68 127.21a1 1 0 0 1 -1-.79l-2.15-9.92a11.15 11.15 0 0 1 21.79-4.72 1 1 0 0 1 -2 .42 9.14 9.14 0 0 0 -16.62-3 9.05 9.05 0 0 0 -1.25 6.89l2.15 9.92a1 1 0 0 1 -.77 1.18.76.76 0 0 1 -.15.02z" fill="#093f68"/><path d="m168.91 124.29h28.85a0 0 0 0 1 0 0v16a9.18 9.18 0 0 1 -9.18 9.18h-10.5a9.18 9.18 0 0 1 -9.18-9.18v-16a0 0 0 0 1 0 0z" fill="#68e1fd"/><path d="m188.59 150.46h-10.5a10.2 10.2 0 0 1 -10.18-10.18v-16a1 1 0 0 1 1-1h28.86a1 1 0 0 1 1 1v16a10.2 10.2 0 0 1 -10.18 10.18zm-18.68-25.17v15a8.19 8.19 0 0 0 8.18 8.18h10.5a8.19 8.19 0 0 0 8.18-8.18v-15z" fill="#093f68"/><circle cx="183.51" cy="133.01" fill="#093f68" r="2.96"/><path d="m183.51 137a4 4 0 1 1 4-4 4 4 0 0 1 -4 4zm0-5.91a2 2 0 1 0 2 2 2 2 0 0 0 -2-2.04z" fill="#093f68"/><path d="m183.51 144a1 1 0 0 1 -1-1v-8.87a1 1 0 1 1 2 0v8.87a1 1 0 0 1 -1 1z" fill="#093f68"/><path d="m253 122.69a16 16 0 0 1 13.54 22.84 15.65 15.65 0 0 1 -15.85 8.95 15.43 15.43 0 0 1 -12.92-9.11c-.24-.49-.52-.77-1.08-.69a9.21 9.21 0 0 1 -6.26-1.51l-.12-.07a.82.82 0 0 0 -1 .06c-1 .67-2 1.28-2.91 2a1 1 0 0 1 -1.37 0c-.91-.66-1.87-1.24-2.79-1.88a.78.78 0 0 0 -1 0c-1 .68-2 1.3-3 2a.77.77 0 0 1 -1.24-.14c-.51-.59-1.11-1.11-1.65-1.68a.61.61 0 0 0 -.93-.09c-.92.64-1.87 1.24-2.79 1.88a.79.79 0 0 1 -1.08 0q-3.12-2.36-6.27-4.67c-.45-.33-.5-.56-.07-1q2.87-2.81 5.66-5.67a2.1 2.1 0 0 1 1.66-.69h24.72a1.23 1.23 0 0 0 1.31-.85c2.85-6.24 7.81-9.37 14.59-9.75zm.5 10.68a5.25 5.25 0 1 0 0 10.49 5.25 5.25 0 0 0 0-10.49z" fill="#ffbc0e"/><path d="m252.28 155.57a16.85 16.85 0 0 1 -1.73-.09 16.39 16.39 0 0 1 -13.72-9.67c0-.06-.05-.11-.07-.14a10.22 10.22 0 0 1 -6.91-1.66c-.49.34-.92.62-1.35.9s-1 .69-1.54 1.05a2 2 0 0 1 -2.56 0c-.49-.36-1-.7-1.52-1l-1.18-.79c-.44.31-.85.57-1.25.84-.55.36-1.1.72-1.64 1.11a1.75 1.75 0 0 1 -2.58-.29c-.28-.31-.58-.61-.88-.9l-.57-.57c-.43.29-.83.56-1.24.82s-.91.61-1.36.92a1.78 1.78 0 0 1 -2.26 0q-3.1-2.35-6.25-4.66a1.66 1.66 0 0 1 -.77-1.2 1.63 1.63 0 0 1 .59-1.3c2.08-2 3.93-3.89 5.65-5.65a3.11 3.11 0 0 1 2.36-1h11.89 12.85a.87.87 0 0 0 .25 0 .74.74 0 0 0 .14-.23c2.95-6.46 8.15-9.93 15.45-10.34a.48.48 0 0 1 .12 0h.32.53a16 16 0 0 1 12.44 6.45 16.37 16.37 0 0 1 1.91 17.83 16.68 16.68 0 0 1 -15.12 9.57zm-15.45-11.91a2 2 0 0 1 1.8 1.27 14.48 14.48 0 0 0 12.12 8.56 14.68 14.68 0 0 0 14.84-8.38 14.3 14.3 0 0 0 -1.73-15.75 14.13 14.13 0 0 0 -11-5.67h-.57-.25c-6.56.38-11 3.38-13.69 9.17a2.18 2.18 0 0 1 -2.2 1.43h-12.84-11.86a1.11 1.11 0 0 0 -.93.38c-1.64 1.69-3.4 3.45-5.38 5.39q3 2.18 5.88 4.39c.49-.34.93-.63 1.37-.91l1.39-.94a1.59 1.59 0 0 1 2.23.23l.69.69c.32.31.64.63.94 1 .54-.4 1.1-.76 1.66-1.13l1.26-.85a1.76 1.76 0 0 1 2.17 0l1.2.8c.54.36 1.09.71 1.61 1.1 0 0 .07 0 .08.06l.12-.08c.53-.38 1.07-.74 1.61-1.1s.87-.57 1.3-.87a1.83 1.83 0 0 1 2.13-.1l.15.08a8.11 8.11 0 0 0 5.6 1.36zm16.65 1.2a6.34 6.34 0 0 1 -4.48-1.86 6.12 6.12 0 0 1 -1.82-4.39 6.28 6.28 0 0 1 6.25-6.22 6.14 6.14 0 0 1 4.4 1.79 6.28 6.28 0 0 1 -4.37 10.7zm0-10.49a4.28 4.28 0 0 0 -4.25 4.24 4.13 4.13 0 0 0 1.24 3 4.35 4.35 0 0 0 3.05 1.29 4.17 4.17 0 0 0 4.19-4.24 4.24 4.24 0 0 0 -1.23-3 4.19 4.19 0 0 0 -3-1.21z" fill="#093f68"/><path d="m221.24 182.91h-76a9.6 9.6 0 0 1 -9.58-9.59v-7.54a9.6 9.6 0 0 1 9.58-9.59h76a9.6 9.6 0 0 1 9.58 9.59v7.54a9.6 9.6 0 0 1 -9.58 9.59zm-76-24.72a7.59 7.59 0 0 0 -7.58 7.59v7.54a7.6 7.6 0 0 0 7.58 7.59h76a7.6 7.6 0 0 0 7.58-7.59v-7.54a7.59 7.59 0 0 0 -7.58-7.59z" fill="#dfeaef"/><g fill="#093f68"><path d="m151.49 177a1 1 0 0 1 -1-1v-12.89a1 1 0 0 1 2 0v12.89a1 1 0 0 1 -1 1z"/><path d="m145.89 173.71a1 1 0 0 1 -.87-.5 1 1 0 0 1 .38-1.37l11.2-6.33a1 1 0 0 1 1 1.75l-11.21 6.32a1 1 0 0 1 -.5.13z"/><path d="m157.09 173.71a1 1 0 0 1 -.49-.13l-11.2-6.32a1 1 0 0 1 -.38-1.37 1 1 0 0 1 1.36-.38l11.21 6.33a1 1 0 0 1 -.5 1.87z"/><path d="m172.66 177a1 1 0 0 1 -1-1v-12.89a1 1 0 0 1 2 0v12.89a1 1 0 0 1 -1 1z"/><path d="m167.06 173.71a1 1 0 0 1 -.5-1.87l11.21-6.33a1 1 0 0 1 1 1.75l-11.2 6.32a1 1 0 0 1 -.51.13z"/><path d="m178.26 173.71a1 1 0 0 1 -.49-.13l-11.21-6.32a1 1 0 0 1 1-1.75l11.2 6.33a1 1 0 0 1 -.49 1.87z"/><path d="m193.83 177a1 1 0 0 1 -1-1v-12.89a1 1 0 0 1 2 0v12.89a1 1 0 0 1 -1 1z"/><path d="m188.23 173.71a1 1 0 0 1 -.88-.51 1 1 0 0 1 .38-1.36l11.21-6.33a1 1 0 0 1 1 1.75l-11.2 6.32a1 1 0 0 1 -.51.13z"/><path d="m199.43 173.71a1 1 0 0 1 -.49-.13l-11.21-6.32a1 1 0 1 1 1-1.75l11.2 6.33a1 1 0 0 1 -.49 1.87z"/><path d="m215 177a1 1 0 0 1 -1-1v-12.89a1 1 0 0 1 2 0v12.89a1 1 0 0 1 -1 1z"/><path d="m209.4 173.71a1 1 0 0 1 -.88-.51 1 1 0 0 1 .38-1.36l11.21-6.33a1 1 0 0 1 1.36.38 1 1 0 0 1 -.38 1.37l-11.2 6.32a1 1 0 0 1 -.49.13z"/><path d="m220.6 173.71a1 1 0 0 1 -.49-.13l-11.21-6.32a1 1 0 0 1 1-1.75l11.2 6.33a1 1 0 0 1 .38 1.36 1 1 0 0 1 -.88.51z"/><path d="m200.68 231.28a5.07 5.07 0 1 1 5.07-5.07 5.08 5.08 0 0 1 -5.07 5.07zm0-8.13a3.07 3.07 0 1 0 3.07 3.06 3.07 3.07 0 0 0 -3.07-3.06z"/><path d="m211.51 72.15h-15.57a1 1 0 0 1 0-2h15.57a1 1 0 0 1 0 2z"/><path d="m192.28 72.15h-2.43a1 1 0 0 1 0-2h2.43a1 1 0 0 1 0 2z"/></g><path d="m161.86 119.06a1 1 0 0 1 -.63-.22l-5.7-4.59a1 1 0 0 1 -.15-1.41 1 1 0 0 1 1.4-.15l5.7 4.59a1 1 0 0 1 .16 1.41 1 1 0 0 1 -.78.37z" fill="#dfeaef"/><path d="m159 125.29a.83.83 0 0 1 -.22 0l-7.51-1.65a1 1 0 1 1 .43-2l7.51 1.65a1 1 0 0 1 -.21 2z" fill="#dfeaef"/><path d="m152.51 135.17a1 1 0 0 1 -.3-2l6.5-2a1 1 0 0 1 1.25.66 1 1 0 0 1 -.66 1.25l-6.49 2a1 1 0 0 1 -.3.09z" fill="#dfeaef"/></svg>